<svg id="Layer_1" data-name="Layer 1" xmlns="http://www.w3.org/2000/svg" viewBox="0 0 527.65 386.75"><defs><style>.cls-1{fill:#fff;}</style></defs><path class="cls-1" d="M551.62,86.62H154.37c-35.88,0-65.63,29.75-65.63,65.63v255.5c0,35.87,29.75,65.62,65.63,65.62H550.75c35.87,0,65.63-29.75,65.63-65.62V152.25c.87-35.88-28.88-65.63-64.76-65.63Zm-25.38,43.75L353,252.87l-171.5-122.5Zm47.25,277.38a21.66,21.66,0,0,1-21.87,21.88H154.37a21.67,21.67,0,0,1-21.88-21.88V149.63L339.88,298.38A21.51,21.51,0,0,0,353,302.75a20.92,20.92,0,0,0,12.25-4.37l207.38-147V407.75Z" transform="translate(-88.74 -86.62)"/></svg>