<svg id="Layer_1" data-name="Layer 1" xmlns="http://www.w3.org/2000/svg" viewBox="0 0 663.33 671.33"><defs><style>.cls-1{fill:#fff;}</style></defs><title>noun-call-4754316 (1)</title><path class="cls-1" d="M663.32,530.62A140.5,140.5,0,0,1,522.74,671.33h-.27C382.83,671.33,251.66,617,153,518.27,52.54,418-1.7,284.65,0,143v-4.3a37.06,37.06,0,0,1,.4-5.64C3.67,58.81,65.3,0,140.49,0a134.65,134.65,0,0,1,26.45,2.55,140.91,140.91,0,0,1,27.79,8.32,12.29,12.29,0,0,1,4.7,3.22,14.52,14.52,0,0,1,3.76,7.25L237,235a13.56,13.56,0,0,1-3.49,11.41,8.05,8.05,0,0,0-1.07,1.07A136.32,136.32,0,0,1,177,276.58a360.7,360.7,0,0,0,85,132.66,366,366,0,0,0,125.27,82.44,138.63,138.63,0,0,1,29.94-54.11,13.73,13.73,0,0,1,12.08-4.3l212,33.43a13.31,13.31,0,0,1,10.07,7.79,129.11,129.11,0,0,1,9.94,32.9,130.69,130.69,0,0,1,2,23.23Z"/><path class="cls-1" d="M378.52,44.44c130.91,0,237.38,106.47,237.38,237.25a13.42,13.42,0,1,0,26.85,0C642.75,136,524.19,17.59,378.51,17.59a13.42,13.42,0,1,0,0,26.85Z"/><path class="cls-1" d="M519.37,281.69a13.42,13.42,0,0,0,26.85,0C546.22,189.18,471,114,378.53,114a13.42,13.42,0,1,0,0,26.85c77.61,0,140.85,63.11,140.85,140.85Z"/><path class="cls-1" d="M365.1,223.82a13.46,13.46,0,0,0,13.42,13.42A44.49,44.49,0,0,1,423,281.69a13.42,13.42,0,1,0,26.85,0,71.34,71.34,0,0,0-71.29-71.29A13.47,13.47,0,0,0,365.1,223.82Z"/></svg>