<svg id="Layer_1" data-name="Layer 1" xmlns="http://www.w3.org/2000/svg" viewBox="0 0 700 689.7"><title>noun-courier-4128607</title><path d="M595.44,465.1c-57.5-41.06-60.22-65.73-98.58-65.73H362.72c-21.9,0-35.6,49.32-21.9,60.26S373.67,550,346.29,550H313.83L322,389.76l15.45-11.66c4.3,2.83,9.13,4.86,14.64,4.86h147.5a27.38,27.38,0,1,0,0-54.77H427.39l.35-.09a46.16,46.16,0,0,0,30.47-57.73L420.8,148.95a46.15,46.15,0,0,0-57.71-30.52l-20.23,6.26a46,46,0,0,0-31.75,51.51A401,401,0,0,1,205.63,287.5a21,21,0,0,0-6.35,7.6h-7.4c-9.61-18.92-26.87-31.73-55.68-32.63,0,0-35.63,38.34,0,82.12,0,0,21.93,2.76,0,30.15C116,399.92,67,447.27,59.25,513.38A91,91,0,1,0,180.48,615.72H418a91,91,0,0,0,178.8,0h26.1c38.32,0,30.11-109.51-27.42-150.64ZM91,650.07a51.42,51.42,0,1,1,51.43-51.45A51.41,51.41,0,0,1,91,650.07Zm97.2-210.94c8.43-31.73,17.58-76.77,12.58-113.46h28.25a15.11,15.11,0,0,0,14.89-13.17A447.11,447.11,0,0,0,326.73,229l19.11,61.94-74.65,56.4-1.4,1.05a29.13,29.13,0,0,0-11.42,24.67L267.42,550H204.64s-32.84-49.31-16.41-110.88ZM507.34,650.07a51.4,51.4,0,0,1-48.43-34.33h96.86A51.39,51.39,0,0,1,507.34,650.07Z"/><path d="M657,155.87H570a43,43,0,0,0-43,43v14.5H700v-14.5a43,43,0,0,0-43-43Z"/><path d="M527,312.58a43,43,0,0,0,43,43h87a43,43,0,0,0,43-43V234.7H527Z"/><path d="M241.83,52.84h28.5a53.3,53.3,0,1,0,5.14-22.37H241.83a11.19,11.19,0,1,0,0,22.37Z"/></svg>