<svg id="Layer_1" data-name="Layer 1" xmlns="http://www.w3.org/2000/svg" viewBox="0 0 667.49 676.33"><defs><style>.cls-1{fill:#fff;}</style></defs><title>noun-safe-4772781</title><path class="cls-1" d="M540.35,199.22a63.57,63.57,0,1,1,127.14,0V424.44a47.67,47.67,0,0,1-14,33.71l-145,145v57A15.89,15.89,0,0,1,492.67,676H333.74a15.9,15.9,0,0,1-15.89-15.89V469.38a15.89,15.89,0,1,1,31.79,0V644.2H476.77V596.52a15.91,15.91,0,0,1,4.65-11.24L631,435.67a15.89,15.89,0,0,0,4.66-11.23V199.21a31.79,31.79,0,1,0-63.57,0V374a15.91,15.91,0,0,1-4.65,11.24l-63.57,63.57a15.9,15.9,0,0,1-22.48-22.48l58.92-58.91Z" transform="translate(0 0.35)"/><path class="cls-1" d="M127.14,199.22A63.57,63.57,0,1,0,0,199.22V424.44a47.67,47.67,0,0,0,14,33.71l145,145v57A15.89,15.89,0,0,0,174.82,676H333.75a15.9,15.9,0,0,0,15.89-15.89V469.38a15.89,15.89,0,1,0-31.79,0V644.2H190.71V596.52a15.9,15.9,0,0,0-4.66-11.24L36.45,435.67a15.88,15.88,0,0,1-4.66-11.23V199.21a31.79,31.79,0,1,1,63.57,0V374A15.9,15.9,0,0,0,100,385.26l63.57,63.57a15.9,15.9,0,1,0,22.48-22.48l-58.92-58.91Z" transform="translate(0 0.35)"/><path class="cls-1" d="M540.35,355.41c0-25.89-31.3-38.85-49.61-20.54L345,480.62a15.89,15.89,0,1,1-22.48-22.48L468.26,312.38c38.33-38.33,103.87-11.18,103.87,43a60.85,60.85,0,0,1-17.82,43l-50.4,50.41a15.9,15.9,0,1,1-22.48-22.48L531.84,376A29.08,29.08,0,0,0,540.35,355.41Z" transform="translate(0 0.35)"/><path class="cls-1" d="M127.14,355.41c0-25.89,31.3-38.85,49.61-20.54L322.5,480.62A15.89,15.89,0,1,0,345,458.14L199.22,312.38c-38.33-38.33-103.86-11.18-103.86,43a60.85,60.85,0,0,0,17.82,43l50.4,50.41a15.9,15.9,0,1,0,22.48-22.48L135.66,376a29.08,29.08,0,0,1-8.51-20.55Z" transform="translate(0 0.35)"/><path class="cls-1" d="M454.89,34.61h0L335.36,0a7.89,7.89,0,0,0-4.62,0L212.59,34.61a7.91,7.91,0,0,0-6,7.85c0,9.23,1.38,221.52,124.61,252h3.69c124.15-30.46,126-243.22,126-252A8.45,8.45,0,0,0,454.89,34.61Zm-48.46,71.07h0L339.51,198a8.58,8.58,0,0,1-5.54,3.23h-1.38a6.94,6.94,0,0,1-5.08-1.84L289.67,170.3a8.22,8.22,0,1,1,10.15-12.92l31.38,24,62.31-85.84A8.19,8.19,0,0,1,405,93.69,9.79,9.79,0,0,1,406.43,105.68Z" transform="translate(0 0.35)"/></svg>