<svg id="Layer_1" data-name="Layer 1" xmlns="http://www.w3.org/2000/svg" viewBox="0 0 700 700"><defs><style>.cls-1{fill:#fff;}</style></defs><title>noun-delivery-4513491</title><path class="cls-1" d="M80.77,700H619.23A80.76,80.76,0,0,0,700,619.23V80.77A80.76,80.76,0,0,0,619.23,0H80.77A80.76,80.76,0,0,0,0,80.77V619.23A80.76,80.76,0,0,0,80.77,700Zm538.46-53.85H80.77a26.92,26.92,0,0,1-26.92-26.92V215.38H242.31a27,27,0,0,0,14.94-4.53l73.91-49.32h315V619.23a26.92,26.92,0,0,1-26.92,26.92ZM53.85,80.77A26.92,26.92,0,0,1,80.77,53.85H619.23a26.92,26.92,0,0,1,26.92,26.92v26.92H323.08a27,27,0,0,0-14.94,4.53l-73.91,49.32H53.85Z"/><path class="cls-1" d="M484.62,269.23H215.38a26.92,26.92,0,0,0-26.92,26.92V538.46a26.92,26.92,0,0,0,26.92,26.92H484.62a26.92,26.92,0,0,0,26.92-26.92V296.15a26.92,26.92,0,0,0-26.92-26.92ZM376.92,323.08v64.62l-15.19-7.35a26.9,26.9,0,0,0-23.47,0l-15.19,7.35V323.08Zm80.77,188.46H242.31V323.08h26.92V430.77A26.92,26.92,0,0,0,307.89,455L350,434.62,392.11,455a26.92,26.92,0,0,0,38.66-24.23V323.08h26.92Z"/><path class="cls-1" d="M146.65,352.83a26.94,26.94,0,0,0-36.14,12.06L83.59,418.74a26.93,26.93,0,0,0,0,24.07l26.92,53.85a26.94,26.94,0,0,0,48.2-24.08l-20.92-41.81L158.84,389a26.93,26.93,0,0,0-12.19-36.14Z"/><path class="cls-1" d="M589.62,364.89A26.93,26.93,0,1,0,541.43,389l20.78,41.81-20.92,41.81a26.94,26.94,0,0,0,48.2,24.07l26.92-53.85a26.93,26.93,0,0,0,0-24.07Z"/></svg>