<svg id="Layer_1" data-name="Layer 1" xmlns="http://www.w3.org/2000/svg" viewBox="0 0 700 700"><defs><style>.cls-1{fill:#fff;}</style></defs><title>noun-seach-1246396</title><path class="cls-1" d="M275.28,424.72a15.77,15.77,0,0,1-15.73,15.73c-99.89,0-180.9-81-180.9-180.9a15.73,15.73,0,1,1,31.46,0A149.37,149.37,0,0,0,259.55,409a15.78,15.78,0,0,1,15.73,15.73ZM700,637.08c0,16.52-6.29,32.25-18.09,43.26l-1.57,1.57A60.07,60.07,0,0,1,637.08,700c-16.52,0-32.25-6.29-43.26-18.09L468.76,556.86a60.07,60.07,0,0,1-18.09-43.26,63.76,63.76,0,0,1,8.65-32.25L431.8,453.82c-45.62,40.9-106.18,65.28-172.25,65.28C116.4,519.1,0,402.7,0,259.55S116.4,0,259.55,0,519.1,116.4,519.1,259.55c0,66.07-24.38,125.85-65.28,172.25l27.53,27.53a63.73,63.73,0,0,1,32.25-8.65c16.52,0,32.25,6.29,43.26,18.09L681.91,593.82c11.8,11,18.09,26.75,18.09,43.26ZM471.91,259.55c0-117.19-95.17-212.36-212.36-212.36S47.19,142.36,47.19,259.55s95.17,212.36,212.36,212.36,212.36-95.17,212.36-212.36Zm180.9,377.53c0-3.93-1.57-7.08-3.93-10.23L523.82,501.8a15,15,0,0,0-10.23-3.93c-3.93,0-7.08,1.57-10.23,3.93l-1.57,1.57a14.72,14.72,0,0,0,0,20.45L626.85,648.88a14.72,14.72,0,0,0,20.45,0l1.57-1.57c2.36-3.14,3.93-6.29,3.93-10.23Z"/></svg>