<svg id="Layer_1" data-name="Layer 1" xmlns="http://www.w3.org/2000/svg" viewBox="0 0 700 563.29"><defs><style>.cls-1{fill:#fff;}</style></defs><title>noun-free3723397</title><path class="cls-1" d="M648.21,200.46c-2.81-7.07-2.07-18.39-1.31-29.39C648,151,649.53,128,633.2,109.31c-16.52-18.86-43-24.83-66.43-30.18-12.58-2.83-25.52-5.81-32.47-9.9-6.76-4.08-13.89-13.52-21-22.48C500,29.62,484.93,10.13,458.1,2.74c-25.9-7.07-51.23.94-73.57,8.17C372,14.84,359.19,19.08,350,19.08S327.86,15,315.47,10.91C293.14,3.84,267.8-4.34,241.9,2.74c-27,7.39-41.85,26.72-55.18,43.85-6.94,9.12-14.26,18.39-21,22.48-6.94,4.24-19.9,7.07-32.47,9.9-23.46,5.18-49.92,11.16-66.43,30.18-16.33,18.7-15,41.65-13.7,61.77.75,11,1.31,22.32-1.31,29.39-2.44,6.45-10.7,14.93-18.76,23.1C18.2,238.5,0,257.52,0,281.56s18.4,42.91,33,58.16c8.07,8.17,16.33,16.66,18.76,23.1,2.81,7.07,2.07,18.39,1.31,29.39C52,412.33,50.47,435.28,66.8,454c16.52,18.86,43,24.83,66.43,30.18,12.58,2.83,25.52,5.81,32.47,9.9,6.76,4.08,13.89,13.52,21,22.48,13.32,17.13,28.34,36.62,55.18,44,25.9,7.07,51.23-.94,73.57-8.17,12.58-3.93,25.34-8.17,34.53-8.17s22.14,4.08,34.53,8.17c16.33,5.18,34.16,10.85,52.55,10.85a81.26,81.26,0,0,0,21-2.67c27-7.39,41.85-26.72,55.18-43.85,6.94-9.12,14.26-18.39,21-22.48,6.94-4.24,19.9-7.07,32.47-9.9,23.46-5.18,49.92-11.16,66.43-30.18,16.33-18.7,15-41.65,13.7-61.77-.75-11-1.31-22.32,1.31-29.39,2.44-6.45,10.7-14.93,18.76-23.1,14.83-15.09,33-34.11,33-58.16s-18.4-42.91-33-58.16c-8.07-8.18-16.32-16.66-18.76-23.11ZM624,310.64c-11.26,11.47-22.71,23.42-28.53,38-5.82,15.25-4.88,31.59-3.94,46.05.75,12.42,1.69,26.72-3.19,32.22-4.88,5.66-21.4,9.43-36,12.73-16.71,3.77-35.47,8-50.67,17.29-15,9.12-25.15,22.16-34.91,34.89-8.26,10.69-17.64,22.79-25.71,25-7.51,2-23.08-3-36.78-7.39-16.33-5.18-34.91-11.16-54.42-11.16s-37.91,6-54.42,11.16c-13.7,4.4-29.27,9.43-36.78,7.39-8.26-2.2-17.64-14.3-25.9-25C223,479.28,212.81,466.23,197.8,457c-15.2-9.27-34.16-13.52-50.86-17.29-14.64-3.3-31-6.91-36-12.73-4.88-5.5-3.94-19.65-3.19-32.22.93-14.46,1.88-31-3.94-46.05-5.63-14.62-17.26-26.56-28.53-38C65.11,300.11,54.6,289.42,54.6,281.72c0-7.55,10.51-18.39,20.64-28.92,11.26-11.47,22.71-23.42,28.53-38,5.82-15.25,4.88-31.59,3.94-46.05C107,156.3,106,142,110.91,136.5c4.88-5.66,21.4-9.43,36-12.73,16.71-3.77,35.47-8,50.67-17.29,15-9.12,25.15-22.16,34.91-34.89,8.26-10.69,17.64-22.79,25.71-25,7.51-2,23.08,3,36.78,7.39,16.33,5.18,34.91,11.16,54.42,11.16s37.91-6,54.42-11.16c13.7-4.4,29.27-9.43,36.78-7.39,8.26,2.2,17.64,14.3,25.9,25,9.76,12.57,19.9,25.62,34.91,34.89,15.2,9.27,34.16,13.52,50.86,17.29,14.64,3.3,31,6.91,36,12.73,4.88,5.5,3.94,19.65,3.19,32.22-.93,14.46-1.88,31,3.94,46.05,5.63,14.62,17.26,26.56,28.53,38,10.13,10.53,20.64,21.22,20.64,28.92C644.64,289.27,634.13,300.12,624,310.64Z" transform="translate(0 0)"/><path class="cls-1" d="M179.29,286v44.39a11.45,11.45,0,0,0,.85,4.42,5.66,5.66,0,0,0,2.94,3l2.27,1.18a23.28,23.28,0,0,1,3,2.36,6,6,0,0,1-1.31,9,14,14,0,0,1-6.92,1.57H143.09a13.21,13.21,0,0,1-6.54-1.57,5.41,5.41,0,0,1-2.83-5.11,5.88,5.88,0,0,1,1.18-3.93,25,25,0,0,1,3.53-2.36l2-1.18a5.88,5.88,0,0,0,2.85-2.95,12.66,12.66,0,0,0,.69-4.53V229.61a14.4,14.4,0,0,0-.69-4.72,4.43,4.43,0,0,0-2.85-2.75l-2-1.15a15.29,15.29,0,0,1-3.53-2.58,4.93,4.93,0,0,1-1.18-3.53q0-3.63,2.75-5.06a14.31,14.31,0,0,1,6.68-1.43h88.38a38.27,38.27,0,0,1,6.28.39,11.23,11.23,0,0,1,3.53,1.17q3.14,2.15,4.32,7.51a50.36,50.36,0,0,1,1.18,10.83v4.29a10.1,10.1,0,0,1-1,4.88q-1,1.76-4.12,1.76a8.18,8.18,0,0,1-4.91-1.55q-.59-.58-3.73-3.5-6.88-8-13.85-10t-19.54-2a83.1,83.1,0,0,0-11.39.59,12.48,12.48,0,0,0-5.7,2,7.83,7.83,0,0,0-2.55,4.4,22.34,22.34,0,0,0-.79,5.57v35.6h28.88q8.51,0,13.45-4.91a7.43,7.43,0,0,1,5.14-2.55,5.8,5.8,0,0,1,5.34,3q1.78,3,1.78,10.7v3.14a25.2,25.2,0,0,1-1.19,8.64q-1.78,4.71-5.93,4.71-2.38,0-6.73-3.54T208.17,286Z" transform="translate(0 0)"/><path class="cls-1" d="M303,309.92v15.32q0,2.75.1,5.79a22.71,22.71,0,0,0,.69,5.2,6.69,6.69,0,0,0,1.77,1.87,24.23,24.23,0,0,0,2.55,1.67q4.71,2,4.71,5.89,0,4.13-3.53,5.5a22.65,22.65,0,0,1-7.07.79H271.59a22.63,22.63,0,0,1-7.07-.79q-3.53-1.37-3.53-5.5,0-3.93,4.71-5.89a18.69,18.69,0,0,0,2.65-1.57,4.47,4.47,0,0,0,1.57-2.06,21.48,21.48,0,0,0,.69-5.4q.19-4.12.2-5.5V290.68q0-1.37-.1-2.95a19.8,19.8,0,0,0-.81-4,11.46,11.46,0,0,0-1.52-3.53q-.81-1.08-5.66-3.24a12.51,12.51,0,0,1-3.64-2.55,5.91,5.91,0,0,1-1.62-4.12q0-3.14,3.34-5.5a34.68,34.68,0,0,1,6.68-3.24q5.1-2.06,9.82-3.44,7.66-2.36,10.41-2.36,5.5,0,8.45,7.86a56.17,56.17,0,0,1,2.55,12.57,44.34,44.34,0,0,1,10.41-13.75q7.66-6.67,15.52-6.68a14.11,14.11,0,0,1,14.53,14.53,17.08,17.08,0,0,1-2.75,9.53,8.49,8.49,0,0,1-7.46,4.22,32,32,0,0,1-8.45-1.77,17.79,17.79,0,0,0-4.91-1,7.78,7.78,0,0,0-5.3,2.36,16.91,16.91,0,0,0-3.44,4.71,31.81,31.81,0,0,0-2.75,8.35A67,67,0,0,0,303,309.92Z" transform="translate(0 0)"/><path class="cls-1" d="M383.93,318a39.43,39.43,0,0,0,10.8,14.3,27.34,27.34,0,0,0,17.48,6.47,32.8,32.8,0,0,0,13.94-2.91,52.33,52.33,0,0,0,12.77-8.73,28.9,28.9,0,0,1,2.55-2.33,7.65,7.65,0,0,1,5.3-1.94,6,6,0,0,1,4,1.66,5,5,0,0,1,1.87,3.8q0,4.69-5.89,10.54a39.24,39.24,0,0,1-10.21,7.42,58.06,58.06,0,0,1-15.32,6.54,72.56,72.56,0,0,1-37.9-1,51.72,51.72,0,0,1-17.48-9.51q-17.67-13.92-17.67-36.85a44.34,44.34,0,0,1,4.42-19.41,50.45,50.45,0,0,1,12.67-16.37,54.57,54.57,0,0,1,18.36-10.58,67.76,67.76,0,0,1,21.9-3.43,63.43,63.43,0,0,1,29.07,6.66q16.1,8.23,16.1,21.94,0,9.79-8.84,17.24Q435,307.25,423.6,311a88.8,88.8,0,0,1-18.17,4.11Q394.14,316.66,383.93,318Zm-2-13.6a58.51,58.51,0,0,0,23.76-4.91q14.33-6.28,14.34-17.09,0-5.3-4.81-8.94a17.64,17.64,0,0,0-10.9-3.63q-12,0-17.87,11.78Q382,290.68,382,304.43Z" transform="translate(0 0)"/><path class="cls-1" d="M501,318a39.43,39.43,0,0,0,10.8,14.3,27.34,27.34,0,0,0,17.48,6.47,32.8,32.8,0,0,0,13.94-2.91A52.33,52.33,0,0,0,556,327.15a28.9,28.9,0,0,1,2.55-2.33,7.65,7.65,0,0,1,5.3-1.94,6,6,0,0,1,4,1.66,5,5,0,0,1,1.87,3.8q0,4.69-5.89,10.54a39.24,39.24,0,0,1-10.21,7.42,58.06,58.06,0,0,1-15.32,6.54,72.56,72.56,0,0,1-37.9-1,51.72,51.72,0,0,1-17.48-9.51q-17.67-13.92-17.67-36.85a44.34,44.34,0,0,1,4.42-19.41,50.45,50.45,0,0,1,12.67-16.37,54.57,54.57,0,0,1,18.36-10.58,67.76,67.76,0,0,1,21.9-3.43,63.43,63.43,0,0,1,29.07,6.66q16.1,8.23,16.1,21.94,0,9.79-8.84,17.24-6.88,5.68-18.26,9.4a88.8,88.8,0,0,1-18.17,4.11Q511.19,316.66,501,318Zm-2-13.6a58.51,58.51,0,0,0,23.76-4.91q14.33-6.28,14.34-17.09,0-5.3-4.81-8.94a17.64,17.64,0,0,0-10.9-3.63q-12,0-17.87,11.78Q499,290.68,499,304.43Z" transform="translate(0 0)"/></svg>